<svg id="visual" viewBox="0 0 900 600" width="900" height="600" xmlns="http://www.w3.org/2000/svg" xmlns:xlink="http://www.w3.org/1999/xlink" version="1.1"><g stroke-width="1" stroke-linejoin="bevel"><path d="M456 284L536.5 307L467 205Z" fill="#916c7c" stroke="#916c7c"></path><path d="M536.5 307L588.5 226L467 205Z" fill="#393649" stroke="#393649"></path><path d="M458 391L554.5 372L536.5 307Z" fill="#7b5e71" stroke="#7b5e71"></path><path d="M536.5 307L702 283L588.5 226Z" fill="#a87b86" stroke="#a87b86"></path><path d="M588.5 226L544.5 121L467 205Z" fill="#bd8b8f" stroke="#bd8b8f"></path><path d="M456 284L458 391L536.5 307Z" fill="#393649" stroke="#393649"></path><path d="M544.5 121L432 115L467 205Z" fill="#393649" stroke="#393649"></path><path d="M467 205L352.5 197L456 284Z" fill="#a87b86" stroke="#a87b86"></path><path d="M456 284L337.5 278L458 391Z" fill="#7b5e71" stroke="#7b5e71"></path><path d="M432 115L352.5 197L467 205Z" fill="#916c7c" stroke="#916c7c"></path><path d="M352.5 197L337.5 278L456 284Z" fill="#26293a" stroke="#26293a"></path><path d="M702 283L691 219L588.5 226Z" fill="#393649" stroke="#393649"></path><path d="M588.5 226L646 93L544.5 121Z" fill="#645065" stroke="#645065"></path><path d="M554.5 372L702 283L536.5 307Z" fill="#916c7c" stroke="#916c7c"></path><path d="M691 219L646 93L588.5 226Z" fill="#bd8b8f" stroke="#bd8b8f"></path><path d="M436 0L356.5 76L432 115Z" fill="#26293a" stroke="#26293a"></path><path d="M533.5 0L432 115L544.5 121Z" fill="#d19c97" stroke="#d19c97"></path><path d="M432 115L356.5 76L352.5 197Z" fill="#26293a" stroke="#26293a"></path><path d="M352.5 197L244 222L337.5 278Z" fill="#bd8b8f" stroke="#bd8b8f"></path><path d="M458 391L541.5 498L554.5 372Z" fill="#bd8b8f" stroke="#bd8b8f"></path><path d="M554.5 372L699 421L702 283Z" fill="#393649" stroke="#393649"></path><path d="M444 502L541.5 498L458 391Z" fill="#26293a" stroke="#26293a"></path><path d="M646 93L533.5 0L544.5 121Z" fill="#141d2b" stroke="#141d2b"></path><path d="M702 283L759.5 212L691 219Z" fill="#a87b86" stroke="#a87b86"></path><path d="M691 219L777.5 118L646 93Z" fill="#bd8b8f" stroke="#bd8b8f"></path><path d="M811.5 268L759.5 212L702 283Z" fill="#00101c" stroke="#00101c"></path><path d="M254 403L323.5 425L337.5 278Z" fill="#bd8b8f" stroke="#bd8b8f"></path><path d="M337.5 278L323.5 425L458 391Z" fill="#645065" stroke="#645065"></path><path d="M541.5 498L699 421L554.5 372Z" fill="#141d2b" stroke="#141d2b"></path><path d="M323.5 425L444 502L458 391Z" fill="#916c7c" stroke="#916c7c"></path><path d="M533.5 0L436 0L432 115Z" fill="#26293a" stroke="#26293a"></path><path d="M205 83L244 222L352.5 197Z" fill="#d19c97" stroke="#d19c97"></path><path d="M646 93L650 0L533.5 0Z" fill="#d19c97" stroke="#d19c97"></path><path d="M778.5 0L650 0L646 93Z" fill="#916c7c" stroke="#916c7c"></path><path d="M244 222L221 269L337.5 278Z" fill="#7b5e71" stroke="#7b5e71"></path><path d="M221 269L254 403L337.5 278Z" fill="#d19c97" stroke="#d19c97"></path><path d="M323.5 425L348.5 511L444 502Z" fill="#393649" stroke="#393649"></path><path d="M759.5 212L777.5 118L691 219Z" fill="#141d2b" stroke="#141d2b"></path><path d="M811.5 422L811.5 268L702 283Z" fill="#7b5e71" stroke="#7b5e71"></path><path d="M759.5 212L900 207L777.5 118Z" fill="#7b5e71" stroke="#7b5e71"></path><path d="M249 502L348.5 511L323.5 425Z" fill="#bd8b8f" stroke="#bd8b8f"></path><path d="M584.5 600L656 522L541.5 498Z" fill="#141d2b" stroke="#141d2b"></path><path d="M436 0L333.5 0L356.5 76Z" fill="#916c7c" stroke="#916c7c"></path><path d="M356.5 76L205 83L352.5 197Z" fill="#4e4358" stroke="#4e4358"></path><path d="M244 222L135.5 231L221 269Z" fill="#a87b86" stroke="#a87b86"></path><path d="M477 600L541.5 498L444 502Z" fill="#a87b86" stroke="#a87b86"></path><path d="M541.5 498L656 522L699 421Z" fill="#393649" stroke="#393649"></path><path d="M699 421L811.5 422L702 283Z" fill="#7b5e71" stroke="#7b5e71"></path><path d="M656 522L757.5 490L699 421Z" fill="#bd8b8f" stroke="#bd8b8f"></path><path d="M333.5 0L205 83L356.5 76Z" fill="#141d2b" stroke="#141d2b"></path><path d="M757.5 490L811.5 422L699 421Z" fill="#26293a" stroke="#26293a"></path><path d="M348.5 511L477 600L444 502Z" fill="#393649" stroke="#393649"></path><path d="M656 522L690 600L757.5 490Z" fill="#bd8b8f" stroke="#bd8b8f"></path><path d="M477 600L584.5 600L541.5 498Z" fill="#d19c97" stroke="#d19c97"></path><path d="M132.5 522L249 502L254 403Z" fill="#141d2b" stroke="#141d2b"></path><path d="M254 403L249 502L323.5 425Z" fill="#916c7c" stroke="#916c7c"></path><path d="M348.5 511L324.5 600L477 600Z" fill="#a87b86" stroke="#a87b86"></path><path d="M900 105L778.5 0L777.5 118Z" fill="#00101c" stroke="#00101c"></path><path d="M777.5 118L778.5 0L646 93Z" fill="#141d2b" stroke="#141d2b"></path><path d="M205 83L135.5 231L244 222Z" fill="#d19c97" stroke="#d19c97"></path><path d="M221 269L89.5 331L254 403Z" fill="#00101c" stroke="#00101c"></path><path d="M333.5 0L208 0L205 83Z" fill="#00101c" stroke="#00101c"></path><path d="M205 83L107.5 80L135.5 231Z" fill="#4e4358" stroke="#4e4358"></path><path d="M584.5 600L690 600L656 522Z" fill="#393649" stroke="#393649"></path><path d="M900 494L900 430L811.5 422Z" fill="#4e4358" stroke="#4e4358"></path><path d="M811.5 268L900 207L759.5 212Z" fill="#a87b86" stroke="#a87b86"></path><path d="M900 320L900 207L811.5 268Z" fill="#4e4358" stroke="#4e4358"></path><path d="M249 502L324.5 600L348.5 511Z" fill="#7b5e71" stroke="#7b5e71"></path><path d="M900 430L900 320L811.5 422Z" fill="#916c7c" stroke="#916c7c"></path><path d="M811.5 422L900 320L811.5 268Z" fill="#bd8b8f" stroke="#bd8b8f"></path><path d="M900 207L900 105L777.5 118Z" fill="#4e4358" stroke="#4e4358"></path><path d="M135.5 231L89.5 331L221 269Z" fill="#916c7c" stroke="#916c7c"></path><path d="M249 502L219 600L324.5 600Z" fill="#393649" stroke="#393649"></path><path d="M0 192L89.5 331L135.5 231Z" fill="#393649" stroke="#393649"></path><path d="M900 494L811.5 422L757.5 490Z" fill="#7b5e71" stroke="#7b5e71"></path><path d="M137.5 0L107.5 80L205 83Z" fill="#645065" stroke="#645065"></path><path d="M690 600L780.5 600L757.5 490Z" fill="#bd8b8f" stroke="#bd8b8f"></path><path d="M208 0L137.5 0L205 83Z" fill="#00101c" stroke="#00101c"></path><path d="M132.5 522L219 600L249 502Z" fill="#141d2b" stroke="#141d2b"></path><path d="M0 319L81.5 416L89.5 331Z" fill="#141d2b" stroke="#141d2b"></path><path d="M89.5 331L81.5 416L254 403Z" fill="#645065" stroke="#645065"></path><path d="M780.5 600L900 494L757.5 490Z" fill="#141d2b" stroke="#141d2b"></path><path d="M81.5 416L132.5 522L254 403Z" fill="#141d2b" stroke="#141d2b"></path><path d="M900 105L900 0L778.5 0Z" fill="#393649" stroke="#393649"></path><path d="M0 93L0 192L107.5 80Z" fill="#bd8b8f" stroke="#bd8b8f"></path><path d="M107.5 80L0 192L135.5 231Z" fill="#a87b86" stroke="#a87b86"></path><path d="M0 192L0 319L89.5 331Z" fill="#7b5e71" stroke="#7b5e71"></path><path d="M0 600L101.5 600L132.5 522Z" fill="#a87b86" stroke="#a87b86"></path><path d="M780.5 600L900 600L900 494Z" fill="#7b5e71" stroke="#7b5e71"></path><path d="M0 0L0 93L107.5 80Z" fill="#bd8b8f" stroke="#bd8b8f"></path><path d="M0 466L132.5 522L81.5 416Z" fill="#00101c" stroke="#00101c"></path><path d="M132.5 522L101.5 600L219 600Z" fill="#393649" stroke="#393649"></path><path d="M0 319L0 424L81.5 416Z" fill="#26293a" stroke="#26293a"></path><path d="M0 424L0 466L81.5 416Z" fill="#26293a" stroke="#26293a"></path><path d="M137.5 0L0 0L107.5 80Z" fill="#916c7c" stroke="#916c7c"></path><path d="M0 466L0 600L132.5 522Z" fill="#d19c97" stroke="#d19c97"></path></g></svg>